<svg class="brand-logo text-white" fill="none" viewBox="0 0 105 25" xmlns="http://www.w3.org/2000/svg"><path d="M61.3891 0.0234375L61.3804 24.525L56.2098 24.5163C53.6202 19.7831 50.6328 14.8335 48.0777 10.1003V24.5163H42.8984V0.0234375H48.0777C48.9856 1.74261 56.2098 14.8984 56.2098 14.8681V0.0234375H61.3891Z" fill="currentColor"></path><path d="M5.1274 12.5539H11.8285V0.00433042L16.9688 0V24.5015L11.8285 24.5059L11.8198 17.8803H5.1274V24.5059L0 24.5015V0L5.1274 0.00433042V12.5539Z" fill="currentColor"></path><path d="M83.269 22.3614C83.2258 23.5133 82.1147 24.4704 81.0166 24.4704H65.8203V19.1483H77.9946V14.8958H67.9214C66.819 14.8785 65.8203 13.7612 65.8203 12.605V2.17302C65.8808 0.960505 66.953 0.0251342 68.0511 0.0078125H83.2907V5.33423H71.1163V9.55639H81.0642C82.1493 9.56938 83.2647 10.5784 83.2734 11.7216V22.3571" fill="currentColor"></path><path d="M26.8143 12.579H33.403V5.33423H26.8143V12.579ZM38.5563 2.23798C38.565 2.36789 38.5563 24.4963 38.5563 24.4963H33.3987V17.8751H26.8143V24.4963H21.6523V2.19468L21.6653 2.03445C21.782 0.839254 22.8196 0.0078125 23.9566 0.0078125H36.3082C37.428 0.0078125 38.4699 1.0731 38.5563 2.23798Z" fill="currentColor"></path><path d="M92.7284 12.6786H99.3171V5.48147H92.7284V12.6786ZM104.47 2.23798C104.479 2.36789 104.47 24.4963 104.47 24.4963H99.3084V17.8751H92.7241V24.4963H87.5664V2.19468L87.5794 2.03445C87.6961 0.839254 88.7294 0.0078125 89.8664 0.0078125H102.222C103.342 0.0078125 104.388 1.0731 104.475 2.23798" fill="currentColor"></path></svg>