<svg aria-label="logo" preserveaspectratio="xMidYMid meet" viewBox="0 0 147.4 21.8" xmlns="http://www.w3.org/2000/svg">
<switch>
<g>
<path d="M136.7,8.3h-6.1V5h6.6V0h-14l0,21.8h14.2v-5h-6.9v-3.4h6.1V8.3z M140,21.8h7.4V0H140V21.8z M49.5,16.6V0h-7.3
            v21.8h13.1v-5.2H49.5z M91.8,8.3h-6.1V5h6.6V0h-14l0,21.8h14.2v-5h-6.9v-3.4h6.1V8.3z M56.9,21.8h9c2.8,0,6.8-0.7,9-4.3
            c1.4-2.3,1.5-5.1,1.5-5.7c0-0.2,0.6-5.1-2-8.8c-2-2.9-5.1-3-7-3c-2,0-10.6,0-10.6,0L56.9,21.8z M68,6.2c0.2,0.4,0.4,1,0.6,2
            c0.2,1.5,0.3,3.9-0.1,5.6c-0.2,0.8-0.4,1.4-0.8,1.9c-0.4,0.5-1.3,0.9-2.2,0.9c-0.8,0-1.2,0-1.2,0l0-11.4h1.2
            C67,5.2,67.7,5.8,68,6.2 M107.6,10.8l2.1,10.9h7.9L122,0h-5.2l-2.6,12L112,0h-6.5c0,0-2.7,12.1-2.7,12.1c0,0,0,0,0,0L100.9,0h-7.3
            l3.8,21.8h7.9L107.6,10.8z M34.7,0l-8.6,0l-6.6,19.2l-4.8-12l6-7.2h-6.9L7.3,8.4l0-8.4H0v21.8h7.3v-5.4l1.9-2.4l2.9,7.9h12.7
            l0.9-3.1l6.6,0l0.8,3.1H41L34.7,0z M29.3,6.3l1.8,7.2l-3.9,0L29.3,6.3z"></path>
</g>
</switch>
</svg>